# xmcd CD database file
#
# Track frame offsets:
#	150
#	31940
#	43290
#	54473
#	69029
#	87743
#	106568
#	118149
#	141180
#	151461
#	167604
#	184906
#	200367
#	210213
#	221749
#	238137
#
# Disc length: 3377 seconds
#
# Revision: 1
# Processed by: cddbd v1.4PL0 Copyright (c) Steve Scherf et al.
# Submitted via: CDex 1.50Beta6
#
DISCID=e10d2f10
DTITLE=Marianna Kazennaya - In The Mood For Jazz
DYEAR=2003
DGENRE=Jazz+Funk
TTITLE0=Sun Valley Serenade
TTITLE1=Chattanooga Choo Choo
TTITLE2=Tea For Two
TTITLE3=Lara's Theme
TTITLE4=Paraphrase Of Gershwin
TTITLE5=Chi Mai
TTITLE6=Take Five
TTITLE7=My Way
TTITLE8=Blue Moon
TTITLE9=Memory
TTITLE10=Oh, Bossa Nova !
TTITLE11=Sophisticated Lady
TTITLE12=Satin Doll
TTITLE13=As Time Goes By
TTITLE14=Over The Rainbow
TTITLE15=Bumbie Boogie
EXTD=YEAR: 2003
EXTT0=
EXTT1=
EXTT2=
EXTT3=
EXTT4=
EXTT5=
EXTT6=
EXTT7=
EXTT8=
EXTT9=
EXTT10=
EXTT11=
EXTT12=
EXTT13=
EXTT14=
EXTT15=
PLAYORDER=
